<svg width="705" height="197" viewBox="0 0 705 197" fill="none" xmlns="http://www.w3.org/2000/svg">
<rect width="705" height="197" fill="white"/>
<path d="M69.6716 158.137C69.6716 158.531 69.6716 158.897 69.6716 159.22C69.6716 159.544 69.6716 159.839 69.6716 160.106C69.6716 160.27 69.7929 160.383 70.0168 160.444L71.1365 160.791V161.217C70.2874 161.217 69.4663 161.189 68.6826 161.189C67.8988 161.189 67.0637 161.189 66.2286 161.217L66.1866 160.791L67.4043 160.425C67.5547 160.398 67.6659 160.269 67.6702 160.116C67.6702 159.848 67.6702 159.553 67.6702 159.225C67.6702 158.897 67.6702 158.531 67.6702 158.137V150.066C67.6702 149.728 67.6702 149.423 67.6702 149.128C67.6702 148.833 67.6702 148.612 67.6702 148.392C67.6791 148.239 67.5828 148.1 67.4369 148.055L66.2053 147.666V147.239C67.059 147.267 67.8755 147.281 68.6592 147.281C69.443 147.281 70.2734 147.281 71.1179 147.239L71.1552 147.666L69.9282 148.036C69.7795 148.063 69.6714 148.193 69.6716 148.345C69.6716 148.577 69.6716 148.83 69.6716 149.105C69.6716 149.381 69.6716 149.681 69.6716 150.005V158.137ZM83.8355 150.75L83.4389 150.806L82.7158 148.191C81.9892 147.998 81.2419 147.896 80.4905 147.886C79.0251 147.818 77.6133 148.447 76.6789 149.583C75.7077 150.844 75.2119 152.41 75.2793 154.003C75.2793 155.937 75.8065 157.481 76.8609 158.634C77.9152 159.787 79.3786 160.366 81.2509 160.369C82.3813 160.354 83.5011 160.148 84.5633 159.759L84.6753 160.228C83.3759 161.108 81.8378 161.563 80.2712 161.531C78.3541 161.615 76.4865 160.907 75.102 159.572C73.758 158.204 73.0413 156.336 73.1239 154.416C73.1239 152.144 73.8486 150.344 75.298 149.016C76.7473 147.687 78.6337 147.023 80.957 147.023C82.1102 147.028 83.2591 147.165 84.3813 147.431L84.4513 147.511L83.8355 150.75ZM91.5893 161.189C90.7775 161.189 89.8817 161.189 88.8974 161.217L88.8554 160.791L90.3203 160.355C90.4699 160.328 90.5795 160.198 90.5815 160.045C90.5815 159.539 90.5815 158.897 90.5815 158.114V148.191H87.0872L86.2055 150.834L85.8089 150.905L85.5523 147.342L85.6223 147.262C87.2458 147.291 88.8009 147.305 90.2876 147.305H92.9329C94.4133 147.305 95.9684 147.291 97.5982 147.262L97.6588 147.342L97.0383 150.834L96.6418 150.905L96.0073 148.191H92.513V158.114C92.513 158.897 92.513 159.52 92.513 160.045C92.5128 160.197 92.6208 160.327 92.7696 160.355L94.2345 160.791V161.217C93.2548 161.198 92.373 161.189 91.5893 161.189ZM110.32 148.167C109.705 147.951 109.06 147.833 108.408 147.82C107.661 147.781 106.924 148.006 106.327 148.458C105.802 148.889 105.513 149.545 105.548 150.225C105.538 150.62 105.631 151.011 105.818 151.359C106.005 151.691 106.253 151.982 106.551 152.217C106.876 152.472 107.226 152.692 107.596 152.873C107.988 153.066 108.389 153.253 108.804 153.441C109.219 153.628 109.705 153.848 110.134 154.073C110.549 154.288 110.939 154.549 111.296 154.852C111.641 155.15 111.924 155.515 112.126 155.925C112.343 156.381 112.45 156.882 112.439 157.387C112.494 158.599 111.909 159.751 110.899 160.416C109.705 161.156 108.317 161.519 106.915 161.456C105.734 161.437 104.562 161.257 103.43 160.922L103.369 160.842L103.836 157.458L104.302 157.387L104.993 160.2C105.676 160.476 106.407 160.618 107.143 160.617C107.962 160.668 108.773 160.436 109.443 159.961C110.004 159.507 110.311 158.808 110.269 158.086C110.277 157.696 110.186 157.31 110.003 156.966C109.821 156.644 109.577 156.361 109.285 156.136C108.965 155.892 108.621 155.681 108.258 155.508C107.876 155.316 107.484 155.128 107.073 154.945C106.663 154.762 106.164 154.528 105.725 154.298C105.302 154.074 104.906 153.802 104.545 153.487C104.186 153.173 103.897 152.787 103.696 152.353C103.476 151.861 103.368 151.327 103.379 150.787C103.34 149.653 103.915 148.586 104.881 147.998C106.001 147.307 107.299 146.965 108.613 147.014C109.712 147.021 110.806 147.145 111.879 147.384L111.949 147.455L111.366 150.558L110.969 150.628L110.32 148.167Z" fill="#878787"/>
<path d="M118.849 161.189C118.037 161.189 117.141 161.189 116.157 161.217L116.115 160.791L117.58 160.355C117.729 160.328 117.839 160.198 117.841 160.045C117.841 159.539 117.841 158.897 117.841 158.114V148.191H114.347L113.465 150.834L113.068 150.905L112.812 147.342L112.882 147.262C114.505 147.291 116.06 147.305 117.547 147.305H120.192C121.671 147.305 123.229 147.305 124.857 147.262L124.913 147.342L124.316 150.834L123.92 150.905L123.285 148.191H119.791V158.114C119.791 158.897 119.791 159.52 119.791 160.045C119.791 160.197 119.899 160.327 120.048 160.355L121.512 160.791V161.217C120.52 161.198 119.632 161.189 118.849 161.189ZM125.669 147.262C126.523 147.291 127.339 147.305 128.123 147.305C128.907 147.305 129.737 147.305 130.582 147.262L130.619 147.689L129.392 148.059C129.243 148.087 129.135 148.217 129.136 148.369C129.136 148.6 129.136 148.853 129.136 149.128C129.136 149.405 129.136 149.705 129.136 150.028V155.47C129.136 157.367 129.436 158.681 130.036 159.412C130.633 160.144 131.604 160.514 132.938 160.514C134.272 160.514 135.27 160.134 135.877 159.38C136.483 158.625 136.787 157.359 136.787 155.587V150.028C136.787 149.705 136.787 149.405 136.787 149.128C136.787 148.852 136.787 148.598 136.763 148.369C136.758 148.217 136.65 148.09 136.502 148.059L135.345 147.722V147.253C136.185 147.281 136.903 147.295 137.505 147.295C138.107 147.295 138.779 147.295 139.6 147.253L139.642 147.68L138.396 148.069C138.248 148.112 138.15 148.252 138.158 148.406C138.158 148.627 138.158 148.875 138.158 149.142C138.158 149.409 138.158 149.719 138.158 150.08V155.184C138.158 157.372 137.718 158.98 136.838 160.008C135.956 161.053 134.571 161.569 132.677 161.569C130.782 161.569 129.453 161.1 128.566 160.162C127.68 159.225 127.241 157.767 127.241 155.794V150.066C127.241 149.728 127.241 149.423 127.241 149.128C127.241 148.833 127.241 148.612 127.241 148.392C127.25 148.239 127.154 148.1 127.008 148.055L125.777 147.666L125.669 147.262ZM143.589 161.189C142.791 161.189 141.97 161.189 141.135 161.217L141.093 160.791L142.31 160.425C142.46 160.396 142.571 160.268 142.581 160.116C142.581 159.848 142.581 159.553 142.581 159.225C142.581 158.897 142.581 158.531 142.581 158.137V150.066C142.581 149.728 142.581 149.423 142.581 149.128C142.581 148.833 142.581 148.612 142.581 148.392C142.586 148.239 142.489 148.101 142.343 148.055L141.116 147.666V147.239C141.97 147.267 142.796 147.281 143.603 147.281C144.26 147.281 144.9 147.281 145.511 147.23C146.122 147.178 146.752 147.178 147.4 147.178C149.708 147.178 151.442 147.708 152.602 148.767C153.762 149.827 154.342 151.397 154.342 153.478C154.342 155.931 153.698 157.836 152.411 159.192C151.123 160.548 149.315 161.227 146.985 161.227C146.346 161.227 145.777 161.227 145.273 161.194C144.769 161.161 144.195 161.189 143.589 161.189ZM144.522 160.303C144.909 160.355 145.292 160.392 145.665 160.406C146.038 160.42 146.411 160.434 146.789 160.434C148.529 160.434 149.859 159.919 150.769 158.887C151.678 157.856 152.136 156.277 152.136 154.148C152.136 152.02 151.702 150.544 150.839 149.545C149.976 148.547 148.604 148.05 146.728 148.05C146.43 148.05 146.103 148.05 145.744 148.05C145.385 148.05 144.974 148.087 144.522 148.12V160.303ZM159.773 158.137C159.773 158.531 159.773 158.897 159.773 159.22C159.773 159.544 159.773 159.839 159.773 160.106C159.773 160.27 159.894 160.383 160.118 160.444L161.238 160.791V161.217C160.388 161.217 159.567 161.189 158.784 161.189C158 161.189 157.165 161.189 156.33 161.217L156.288 160.791L157.505 160.425C157.655 160.397 157.765 160.268 157.771 160.116C157.771 159.848 157.771 159.553 157.771 159.225C157.771 158.897 157.771 158.531 157.771 158.137V150.066C157.771 149.728 157.771 149.423 157.771 149.128C157.771 148.833 157.771 148.612 157.771 148.392C157.78 148.238 157.681 148.098 157.533 148.055L156.306 147.666V147.239C157.16 147.267 157.977 147.281 158.76 147.281C159.544 147.281 160.374 147.281 161.219 147.239L161.256 147.666L160.029 148.036C159.881 148.063 159.772 148.193 159.773 148.345C159.773 148.577 159.773 148.83 159.773 149.105C159.773 149.381 159.773 149.681 159.773 150.005V158.137Z" fill="#878787"/>
<path d="M165.66 147.305H168.068C169.545 147.305 171.1 147.291 172.733 147.262L172.794 147.342L172.215 150.417L171.823 150.487L171.207 148.191H166.635V153.661H167.536C168.222 153.661 168.987 153.661 169.831 153.661C169.99 153.665 170.13 153.558 170.167 153.403L170.512 152.062H171.049C171.049 153 171.021 153.675 171.021 154.12C171.021 154.566 171.021 155.227 171.049 156.15L170.512 156.187L170.158 154.823C170.13 154.673 170.002 154.562 169.85 154.556C168.991 154.556 168.217 154.556 167.517 154.556H166.626V158.175C166.626 158.911 166.626 159.637 166.626 160.355H171.436L172.644 157.828L173.111 157.748L172.892 161.212L172.822 161.278C171.114 161.259 169.537 161.25 168.091 161.25H165.735C164.937 161.25 164.116 161.25 163.281 161.278L163.239 160.852L164.457 160.486C164.607 160.459 164.718 160.33 164.723 160.177C164.723 159.909 164.723 159.614 164.723 159.286C164.723 158.958 164.723 158.592 164.723 158.198V150.066C164.723 149.728 164.723 149.423 164.723 149.128C164.723 148.833 164.723 148.612 164.723 148.392C164.732 148.239 164.635 148.1 164.489 148.055L163.258 147.666V147.239C164.06 147.291 164.877 147.305 165.66 147.305Z" fill="#878787"/>
<path d="M179.833 161.269L175.415 149.273C175.314 148.942 175.166 148.626 174.977 148.336C174.818 148.148 174.604 148.015 174.366 147.956L173.465 147.675V147.248C174.118 147.277 174.884 147.291 175.761 147.291C176.652 147.291 177.575 147.291 178.522 147.248L178.564 147.675L177.631 147.947C177.526 147.967 177.427 148.016 177.347 148.087C177.282 148.164 177.251 148.264 177.258 148.364C177.266 148.545 177.301 148.723 177.361 148.894C177.431 149.119 177.529 149.405 177.655 149.756L180.85 158.709L184.326 149.766C184.466 149.4 184.573 149.109 184.653 148.884C184.72 148.715 184.76 148.537 184.769 148.355C184.779 148.256 184.745 148.158 184.676 148.087C184.595 148.022 184.499 147.977 184.396 147.956L183.463 147.708V147.239C184.181 147.267 184.909 147.281 185.642 147.281C186.374 147.281 187.079 147.281 187.75 147.239L187.788 147.666L186.789 147.984C186.584 148.035 186.4 148.152 186.267 148.317C186.078 148.612 185.922 148.926 185.8 149.255L180.813 161.189L179.833 161.269ZM190.643 147.305H193.05C194.529 147.305 196.087 147.305 197.716 147.262L197.772 147.342L197.198 150.417L196.801 150.487L196.19 148.191H191.613V153.661H192.514C193.204 153.661 193.969 153.661 194.814 153.661C194.972 153.665 195.112 153.558 195.15 153.403L195.495 152.062H196.031C196.008 153 195.999 153.675 195.999 154.12C195.999 154.566 195.999 155.227 196.031 156.15L195.495 156.187L195.14 154.823C195.112 154.673 194.984 154.562 194.832 154.556C193.974 154.556 193.2 154.556 192.5 154.556H191.609V158.175C191.609 158.911 191.609 159.637 191.609 160.355H196.358L197.566 157.828L198.033 157.748L197.814 161.212L197.744 161.278C196.036 161.259 194.459 161.25 193.013 161.25H190.657C189.855 161.25 189.038 161.25 188.198 161.278L188.161 160.852L189.379 160.486C189.527 160.456 189.637 160.329 189.645 160.177C189.645 159.909 189.645 159.614 189.645 159.286C189.645 158.958 189.645 158.592 189.645 158.198V150.066C189.645 149.728 189.645 149.423 189.645 149.128C189.645 148.833 189.645 148.612 189.645 148.392C189.653 148.238 189.554 148.098 189.407 148.055L188.18 147.666V147.239C189.038 147.291 189.859 147.305 190.643 147.305ZM203.403 158.137C203.403 158.531 203.403 158.892 203.403 159.211C203.403 159.53 203.403 159.816 203.403 160.073C203.384 160.248 203.492 160.412 203.659 160.462L204.756 160.791L204.788 161.217C204 161.217 203.216 161.189 202.432 161.189C201.648 161.189 200.813 161.189 199.974 161.217L199.936 160.791L201.154 160.425C201.303 160.395 201.412 160.268 201.42 160.116C201.42 159.848 201.42 159.553 201.42 159.225C201.42 158.897 201.42 158.531 201.42 158.137V150.066C201.42 149.728 201.42 149.423 201.42 149.128C201.42 148.833 201.42 148.612 201.42 148.392C201.428 148.238 201.33 148.098 201.182 148.055L199.955 147.666V147.239C200.804 147.267 201.639 147.281 202.451 147.281C202.609 147.281 202.815 147.281 203.062 147.281L203.962 147.248L204.863 147.22C205.101 147.22 205.292 147.22 205.432 147.22C206.953 147.22 208.091 147.502 208.852 148.073C209.623 148.663 210.051 149.6 209.995 150.572C210.034 151.441 209.755 152.295 209.211 152.972C208.562 153.657 207.734 154.144 206.822 154.378C207.242 155.011 207.634 155.63 207.989 156.22C208.343 156.811 208.67 157.359 208.973 157.852C209.276 158.344 209.556 158.789 209.813 159.159C210.02 159.479 210.256 159.779 210.517 160.055C210.622 160.161 210.734 160.26 210.853 160.35C210.963 160.431 211.082 160.499 211.208 160.552C211.332 160.607 211.46 160.654 211.59 160.692C211.73 160.73 211.879 160.772 212.057 160.809L212.085 161.25C211.689 161.302 211.29 161.332 210.89 161.339C210.62 161.339 210.382 161.339 210.177 161.339C209.991 161.327 209.807 161.301 209.626 161.259C209.476 161.221 209.329 161.169 209.188 161.105C209.052 161.036 208.924 160.955 208.805 160.861C208.488 160.61 208.214 160.309 207.993 159.97C207.732 159.581 207.457 159.141 207.172 158.653C206.888 158.166 206.594 157.641 206.286 157.087C205.978 156.534 205.651 155.991 205.311 155.461C205.213 155.302 205.124 155.175 205.054 155.081C204.991 154.995 204.914 154.921 204.826 154.861C204.735 154.806 204.636 154.77 204.532 154.753C204.391 154.731 204.249 154.717 204.107 154.711H203.412L203.403 158.137ZM203.403 153.919C203.81 153.937 204.183 153.947 204.522 153.947C205.667 153.947 206.503 153.703 207.032 153.216C207.561 152.728 207.827 151.964 207.83 150.923C207.83 149.914 207.576 149.178 207.07 148.716C206.563 148.253 205.766 148.022 204.681 148.022C204.499 148.022 204.298 148.022 204.088 148.022C203.878 148.022 203.65 148.055 203.403 148.083V153.919ZM215.215 147.305H217.622C219.101 147.305 220.66 147.305 222.288 147.262L222.344 147.342L221.77 150.417L221.373 150.487L220.762 148.191H216.223V153.661H217.123C217.814 153.661 218.579 153.661 219.423 153.661C219.582 153.665 219.722 153.558 219.759 153.403L220.104 152.062H220.641C220.618 153 220.608 153.675 220.608 154.12C220.608 154.566 220.608 155.227 220.641 156.15L220.104 156.187L219.75 154.823C219.722 154.673 219.594 154.562 219.442 154.556C218.584 154.556 217.809 154.556 217.109 154.556H216.223V158.175C216.223 158.911 216.223 159.637 216.246 160.355H220.995L222.204 157.828L222.67 157.748L222.451 161.212L222.381 161.278C220.674 161.259 219.097 161.25 217.65 161.25H215.294C214.492 161.25 213.676 161.25 212.836 161.278L212.799 160.852L214.016 160.486C214.165 160.456 214.274 160.329 214.282 160.177C214.282 159.909 214.282 159.614 214.282 159.286C214.282 158.958 214.282 158.592 214.282 158.198V150.066C214.282 149.728 214.282 149.423 214.282 149.128C214.282 148.833 214.282 148.612 214.282 148.392C214.29 148.238 214.192 148.098 214.044 148.055L212.817 147.666V147.239C213.61 147.291 214.431 147.305 215.215 147.305ZM226.953 150.098V158.137C226.953 158.916 226.953 159.567 226.953 160.083C226.94 160.243 227.045 160.388 227.2 160.425L228.376 160.772L228.399 161.217C227.572 161.198 226.896 161.189 226.37 161.189C225.852 161.189 225.171 161.189 224.317 161.217L224.28 160.791L225.498 160.425C225.647 160.397 225.757 160.268 225.763 160.116C225.763 159.577 225.763 158.916 225.763 158.137V150.066C225.763 149.405 225.763 148.856 225.763 148.416C225.772 148.261 225.673 148.121 225.526 148.078L224.299 147.689V147.262C225.148 147.291 225.824 147.305 226.319 147.305C226.617 147.305 226.916 147.305 227.219 147.262L235.537 157.697V150.028C235.537 149.386 235.537 148.833 235.514 148.369C235.511 148.218 235.404 148.09 235.257 148.059L234.091 147.722V147.253C234.94 147.281 235.621 147.295 236.144 147.295C236.666 147.295 237.347 147.295 238.173 147.253L238.211 147.68L236.965 148.069C236.817 148.112 236.719 148.252 236.727 148.406C236.727 148.847 236.727 149.395 236.727 150.056V161.18L235.892 161.259L226.953 150.098ZM243.165 158.137C243.165 158.531 243.165 158.897 243.165 159.22C243.165 159.544 243.165 159.839 243.165 160.106C243.165 160.27 243.286 160.383 243.51 160.444L244.63 160.791V161.217C243.781 161.217 242.96 161.189 242.176 161.189C241.392 161.189 240.557 161.189 239.722 161.217L239.68 160.791L240.898 160.425C241.048 160.398 241.159 160.269 241.164 160.116C241.164 159.848 241.164 159.553 241.164 159.225C241.164 158.897 241.164 158.531 241.164 158.137V150.066C241.164 149.728 241.164 149.423 241.164 149.128C241.164 148.833 241.164 148.612 241.164 148.392C241.173 148.239 241.076 148.1 240.93 148.055L239.699 147.666V147.239C240.552 147.267 241.369 147.281 242.153 147.281C242.936 147.281 243.767 147.281 244.611 147.239L244.649 147.666L243.422 148.036C243.273 148.063 243.165 148.193 243.165 148.345C243.165 148.575 243.165 148.814 243.165 149.105C243.165 149.395 243.165 149.681 243.165 150.005V158.137ZM257.38 150.75L256.984 150.806L256.303 148.205C255.564 148 254.802 147.893 254.035 147.886C252.556 147.808 251.126 148.431 250.172 149.569C249.239 150.694 248.773 152.244 248.773 154.219C248.773 156.194 249.275 157.777 250.28 158.967C251.295 160.147 252.792 160.796 254.343 160.73C254.911 160.731 255.478 160.659 256.027 160.514V157.856C256.027 157.523 256.027 157.223 256.027 156.952C256.027 156.68 256.027 156.431 256.027 156.206C256.037 156.054 255.937 155.916 255.789 155.878L254.562 155.489V155.062C255.412 155.062 256.233 155.091 257.012 155.091C257.791 155.091 258.575 155.091 259.316 155.062L259.363 155.489L258.285 155.808C258.14 155.841 258.035 155.968 258.029 156.117C258.029 156.38 258.029 156.652 258.029 156.928C258.029 157.205 258.029 157.5 258.029 157.819V161.002L257.973 161.072C256.751 161.374 255.499 161.531 254.241 161.541C251.92 161.541 250.076 160.925 248.707 159.694C247.339 158.462 246.653 156.744 246.65 154.537C246.65 152.194 247.364 150.352 248.791 149.025C250.219 147.698 252.16 147.028 254.623 147.028C255.75 147.036 256.872 147.173 257.968 147.436L258.029 147.516L257.38 150.75ZM264.276 158.137C264.276 158.531 264.276 158.897 264.276 159.22C264.276 159.544 264.276 159.839 264.276 160.106C264.276 160.27 264.397 160.383 264.621 160.444L265.741 160.791V161.217C264.891 161.217 264.075 161.189 263.287 161.189C262.498 161.189 261.668 161.189 260.833 161.217L260.791 160.791L262.008 160.425C262.159 160.397 262.271 160.269 262.279 160.116C262.279 159.848 262.279 159.553 262.279 159.225C262.279 158.897 262.279 158.531 262.279 158.137V150.066C262.279 149.728 262.279 149.423 262.279 149.128C262.279 148.833 262.279 148.612 262.279 148.392C262.284 148.239 262.187 148.101 262.041 148.055L260.814 147.666L260.791 147.239C261.644 147.267 262.461 147.281 263.249 147.281C264.038 147.281 264.859 147.281 265.703 147.239L265.741 147.666L264.514 148.036C264.365 148.063 264.257 148.193 264.257 148.345C264.257 148.577 264.257 148.83 264.257 149.105C264.257 149.381 264.257 149.681 264.257 150.005L264.276 158.137ZM270.112 150.098V158.137C270.112 158.916 270.112 159.567 270.112 160.083C270.1 160.242 270.205 160.387 270.359 160.425L271.54 160.772V161.217C270.715 161.198 270.039 161.189 269.51 161.189C268.997 161.189 268.311 161.189 267.462 161.217L267.42 160.791L268.638 160.425C268.797 160.41 268.924 160.285 268.941 160.125C268.941 159.586 268.941 158.925 268.941 158.147V150.066C268.941 149.405 268.941 148.856 268.941 148.416C268.946 148.262 268.849 148.124 268.703 148.078L267.476 147.689L267.453 147.262C268.306 147.291 268.978 147.305 269.473 147.305C269.771 147.305 270.07 147.305 270.373 147.262L278.691 157.697V150.028C278.691 149.386 278.691 148.833 278.691 148.369C278.686 148.217 278.578 148.09 278.43 148.059L277.264 147.722V147.253C278.108 147.281 278.789 147.295 279.312 147.295C279.834 147.295 280.516 147.295 281.341 147.253L281.383 147.68L280.133 148.069C279.987 148.115 279.89 148.253 279.895 148.406C279.895 148.847 279.895 149.395 279.895 150.056V161.18L279.065 161.259L270.112 150.098ZM293.667 150.75L293.271 150.806L292.589 148.205C291.851 148 291.088 147.893 290.322 147.886C288.843 147.809 287.414 148.432 286.459 149.569C285.526 150.694 285.06 152.244 285.06 154.219C285.06 156.194 285.563 157.781 286.571 158.981C287.585 160.161 289.08 160.81 290.63 160.744C291.2 160.745 291.767 160.673 292.319 160.528V157.87C292.319 157.537 292.319 157.237 292.319 156.966C292.319 156.694 292.319 156.445 292.319 156.22C292.324 156.069 292.226 155.933 292.081 155.892L290.854 155.503L290.831 155.077C291.684 155.077 292.501 155.105 293.285 155.105C294.068 155.105 294.843 155.105 295.585 155.077L295.636 155.503L294.554 155.822C294.409 155.857 294.305 155.983 294.297 156.131C294.297 156.394 294.297 156.666 294.297 156.942C294.297 157.219 294.297 157.514 294.297 157.833V161.016L294.236 161.086C293.015 161.388 291.762 161.546 290.504 161.555C288.184 161.555 286.338 160.939 284.966 159.708C283.595 158.477 282.91 156.758 282.914 154.552C282.914 152.208 283.627 150.366 285.05 149.039C286.473 147.712 288.419 147.042 290.882 147.042C292.009 147.05 293.131 147.187 294.227 147.45L294.288 147.53L293.667 150.75Z" fill="#878787"/>
<path d="M47.3032 129.613C47.3032 130.802 47.3032 131.888 47.3032 132.862C47.3032 133.835 47.3311 134.734 47.3497 135.511C47.3497 136.007 47.7125 136.344 48.387 136.527L51.7314 137.566L51.7919 138.849C49.2429 138.789 46.7946 138.76 44.4471 138.76C42.0996 138.76 39.6514 138.789 37.1023 138.849L37 137.566L40.6422 136.466C41.0919 136.378 41.4227 135.99 41.4422 135.53C41.4422 134.739 41.4748 133.849 41.4841 132.866C41.4934 131.883 41.4841 130.793 41.4841 129.59V105.446C41.4841 104.435 41.4841 103.522 41.4841 102.703C41.4841 101.884 41.4608 101.154 41.4422 100.498C41.4609 100.035 41.1636 99.6179 40.7212 99.4872L37.0605 98.3404L37 97.0438C39.5459 97.125 41.9942 97.164 44.3448 97.1609C46.6954 97.1577 49.1421 97.1187 51.6849 97.0438L51.8059 98.3264L48.1358 99.4264C47.6845 99.5047 47.357 99.9018 47.3636 100.363C47.3636 101.055 47.3311 101.814 47.3171 102.642C47.3032 103.471 47.3171 104.365 47.3171 105.338L47.3032 129.613ZM64.8023 105.535V129.613C64.8023 131.954 64.8224 133.899 64.8627 135.45C64.8123 135.93 65.1325 136.37 65.6023 136.466L69.1282 137.51L69.1887 138.849C66.7078 138.789 64.6844 138.76 63.1184 138.76C61.5524 138.76 59.5135 138.789 57.0016 138.849L56.8807 137.566L60.5228 136.466C60.9763 136.384 61.3103 135.993 61.3229 135.53C61.3648 133.924 61.3834 131.944 61.3834 129.604V105.446C61.3834 103.461 61.3632 101.812 61.3229 100.498C61.3433 100.039 61.0527 99.6231 60.6159 99.4872L56.9272 98.3404L56.8667 97.0579C59.4158 97.139 61.4314 97.178 62.9137 97.1749C63.8006 97.1749 64.6984 97.1359 65.607 97.0579L90.4927 128.298V105.329C90.4927 103.4 90.4927 101.743 90.4322 100.353C90.4224 99.8984 90.1024 99.5105 89.6601 99.417L86.1668 98.406L86.1063 97.0345C88.6367 97.1156 90.6803 97.1546 92.237 97.1515C93.7937 97.1484 95.8172 97.1094 98.3073 97.0345L98.4003 98.3404L94.6791 99.5013C94.2423 99.6371 93.9517 100.053 93.9721 100.512C93.9286 101.826 93.9085 103.475 93.9116 105.46V138.774L91.423 139.012L64.8023 105.535ZM110.494 138.76C108.11 138.76 105.663 138.789 103.154 138.849L103.052 137.566L106.694 136.466C107.146 136.382 107.477 135.992 107.489 135.53C107.513 134.739 107.527 133.849 107.536 132.866C107.545 131.883 107.536 130.793 107.536 129.59V105.446C107.536 104.435 107.536 103.522 107.536 102.703C107.536 101.884 107.536 101.154 107.489 100.498C107.51 100.039 107.219 99.6231 106.782 99.4872L103.108 98.3264L103.052 97.0438C105.598 97.125 108.079 97.164 110.494 97.1609C112.467 97.1609 114.369 97.1125 116.202 97.0157C118.034 96.919 119.918 96.8691 121.853 96.866C128.756 96.866 133.944 98.4496 137.417 101.617C140.891 104.784 142.615 109.487 142.59 115.725C142.59 123.074 140.663 128.78 136.808 132.843C132.954 136.906 127.544 138.934 120.579 138.928C118.666 138.928 116.96 138.898 115.462 138.839C113.964 138.78 112.308 138.753 110.494 138.76ZM113.341 136.106C114.504 136.265 115.644 136.372 116.76 136.419C117.876 136.466 118.997 136.494 120.123 136.494C125.333 136.494 129.301 134.949 132.026 131.86C134.752 128.771 136.113 124.038 136.11 117.663C136.11 111.466 134.817 106.872 132.231 103.883C129.645 100.893 125.548 99.3983 119.942 99.3983C119.052 99.3983 118.07 99.4186 116.997 99.4592C115.924 99.4997 114.706 99.5684 113.341 99.6651V136.106ZM158.87 129.613C158.87 130.802 158.87 131.888 158.87 132.862C158.87 133.835 158.898 134.734 158.917 135.511C158.917 136.007 159.284 136.344 159.954 136.527L163.299 137.566L163.359 138.849C160.81 138.789 158.362 138.76 156.014 138.76C153.628 138.76 151.177 138.788 148.674 138.849L148.553 137.566L152.195 136.466C152.645 136.378 152.976 135.99 152.995 135.53C152.995 134.739 153.028 133.849 153.037 132.866C153.047 131.883 153.037 130.793 153.037 129.59V105.446C153.037 104.435 153.037 103.522 153.037 102.703C153.037 101.884 153.014 101.154 152.995 100.498C153.015 100.037 152.722 99.6214 152.284 99.4872L148.637 98.3404L148.576 97.0579C151.119 97.139 153.568 97.178 155.921 97.1749C158.275 97.1718 160.722 97.1328 163.261 97.0579L163.382 98.3404L159.712 99.4404C159.261 99.5187 158.933 99.9158 158.94 100.377C158.94 101.069 158.908 101.828 158.894 102.656C158.88 103.485 158.894 104.379 158.894 105.352L158.87 129.613ZM201.251 107.445L200.064 107.623L197.901 99.7868C195.727 99.2026 193.49 98.8882 191.24 98.8506C186.403 98.8506 182.602 100.55 179.839 103.948C177.076 107.346 175.695 111.756 175.695 117.176C175.695 122.977 177.275 127.607 180.435 131.064C183.595 134.522 187.967 136.252 193.552 136.255C196.936 136.212 200.288 135.598 203.469 134.439L203.795 135.778C199.919 138.478 195.303 139.895 190.589 139.831C184.213 139.831 179.056 137.875 175.118 133.962C171.18 130.049 169.211 124.9 169.211 118.515C169.211 111.703 171.381 106.31 175.723 102.338C180.064 98.3654 185.705 96.3792 192.645 96.3792C196.091 96.3937 199.525 96.8036 202.879 97.6009L203.083 97.8349L201.251 107.445ZM218.987 129.613C218.987 130.802 218.987 131.888 218.987 132.862C218.987 133.835 219.01 134.734 219.033 135.511C219.033 136.007 219.396 136.344 220.066 136.527L223.415 137.566L223.471 138.849C220.925 138.789 218.478 138.76 216.131 138.76C213.783 138.76 211.335 138.789 208.786 138.849L208.665 137.566L212.307 136.466C212.758 136.379 213.09 135.991 213.107 135.53C213.107 134.739 213.145 133.849 213.154 132.866C213.163 131.883 213.154 130.793 213.154 129.59V105.446C213.154 104.435 213.154 103.522 213.154 102.703C213.154 101.884 213.126 101.154 213.107 100.498C213.128 100.039 212.837 99.6231 212.4 99.4872L208.726 98.3264L208.665 97.0438C211.214 97.125 213.662 97.164 216.01 97.1609C218.357 97.1577 220.806 97.1187 223.355 97.0438L223.471 98.3264L219.806 99.4264C219.356 99.5067 219.031 99.9033 219.038 100.363C219.015 101.055 219.001 101.814 218.991 102.642C218.982 103.471 218.991 104.365 218.991 105.338L218.987 129.613ZM228.253 97.0438C230.802 97.125 233.25 97.164 235.597 97.1609C237.945 97.1577 240.393 97.1187 242.942 97.0438L243.063 98.3404L239.393 99.4404C238.942 99.5187 238.614 99.9158 238.621 100.377C238.621 101.069 238.588 101.828 238.579 102.656C238.57 103.485 238.579 104.379 238.579 105.352V121.651C238.579 127.327 239.478 131.266 241.277 133.466C243.076 135.666 245.967 136.758 249.952 136.742C253.983 136.742 256.915 135.609 258.748 133.344C260.581 131.078 261.488 127.295 261.469 121.993V105.329C261.469 104.355 261.469 103.457 261.469 102.633C261.469 101.804 261.437 101.046 261.395 100.353C261.387 99.8992 261.069 99.5108 260.627 99.417L257.162 98.406L257.102 97.0345C259.607 97.1156 261.759 97.1546 263.558 97.1515C265.273 97.1515 267.364 97.1125 269.833 97.0345L269.954 98.317L266.233 99.4779C265.794 99.612 265.501 100.028 265.521 100.489C265.521 101.144 265.488 101.893 265.474 102.694C265.46 103.494 265.474 104.426 265.474 105.437V120.724C265.474 127.24 264.156 132.057 261.521 135.174C258.885 138.291 254.735 139.852 249.073 139.855C243.522 139.855 239.426 138.451 236.784 135.642C234.142 132.834 232.819 128.465 232.816 122.536V105.446C232.816 104.435 232.816 103.522 232.816 102.703C232.816 101.884 232.788 101.154 232.769 100.498C232.789 100.037 232.496 99.6214 232.058 99.4872L228.313 98.3404L228.253 97.0438ZM312.46 97.0438C314.32 97.125 315.999 97.164 317.497 97.1609C318.995 97.1577 320.959 97.1187 323.391 97.0438L323.535 98.3404L319.814 99.5013C319.375 99.6354 319.082 100.051 319.102 100.512C319.059 101.826 319.038 103.475 319.041 105.46V129.627C319.041 131.968 319.041 133.948 319.102 135.553C319.122 136.023 319.468 136.414 319.93 136.489L323.484 137.589L323.544 138.872C320.939 138.813 318.446 138.783 316.064 138.783C313.683 138.783 311.379 138.813 309.152 138.872L309.036 137.589L312.441 136.55C312.902 136.423 313.211 135.987 313.181 135.506C313.218 133.938 313.236 131.977 313.236 129.637V103.808L298.551 138.76L296.388 138.998L281.615 103.808V129.613C281.615 131.954 281.615 133.915 281.676 135.483C281.644 135.973 281.969 136.414 282.443 136.527L285.76 137.566L285.82 138.849C283.47 138.789 281.505 138.76 279.927 138.76C278.348 138.76 276.305 138.789 273.796 138.849L273.68 137.566L277.322 136.466C277.773 136.381 278.106 135.992 278.122 135.53C278.159 133.924 278.178 131.944 278.178 129.604V105.446C278.178 103.461 278.159 101.812 278.122 100.498C278.14 100.038 277.848 99.6228 277.41 99.4872L273.708 98.3404L273.647 97.0579C276.193 97.139 278.209 97.178 279.694 97.1749C281.39 97.1749 283.158 97.1359 284.997 97.0579L298.747 129.744L312.46 97.0438Z" fill="#1D1D1B"/>
<path d="M190.586 57.7887C189.915 57.3914 189.083 57.3633 188.386 57.7143C186.322 58.5184 187.441 60.926 187.441 60.926C191.54 63.2779 193.929 67.7259 193.316 72.8572C192.619 78.5432 188.014 82.996 182.226 83.5796C176.437 84.1632 171.01 80.7219 169.157 75.2928C167.304 69.8638 169.52 63.8956 174.493 60.9214H174.469C174.469 60.9214 175.366 58.8577 173.851 57.8259C172.988 57.293 171.879 57.3468 171.074 57.9607C165.139 62.1952 162.666 69.7211 164.959 76.5743C167.251 83.4276 173.783 88.0355 181.113 87.971C188.443 87.9064 194.89 83.1843 197.058 76.2917C199.225 69.3991 196.616 61.918 190.605 57.7887H190.586Z" fill="#9D9D9C"/>
<path d="M183.805 66.6615C183.805 65.2951 182.544 64.1889 180.972 64.1889C179.399 64.1889 178.138 65.2951 178.138 66.6615V78.3463C178.138 79.7128 179.399 80.819 180.972 80.819C182.544 80.819 183.805 79.7128 183.805 78.3463V66.6615Z" fill="#9D9D9C"/>
<path d="M180.943 60.954C182.5 60.954 183.762 59.7116 183.762 58.179C183.762 56.6464 182.5 55.404 180.943 55.404C179.386 55.404 178.124 56.6464 178.124 58.179C178.124 59.7116 179.386 60.954 180.943 60.954Z" fill="#9D9D9C"/>
<path d="M206.711 70.4959C206.691 59.7832 200.125 50.146 190.094 46.1073C180.063 42.0685 168.56 44.4299 160.982 52.0832C160.057 52.9908 160.05 54.4684 160.968 55.3837C161.885 56.2989 163.379 56.3051 164.304 55.3975C170.531 49.0674 180.014 47.1025 188.285 50.4292C196.556 53.756 201.962 61.7101 201.956 70.5419C201.956 71.8334 203.014 72.8803 204.32 72.8803C205.625 72.8803 206.684 71.8334 206.684 70.5419C206.697 70.5291 206.706 70.5133 206.711 70.4959Z" fill="#A3CF9B"/>
<path d="M216.631 70.0889C216.66 55.5028 207.78 42.3619 194.192 36.8845C180.604 31.4072 165.034 34.6921 154.849 45.1847C154.288 45.7984 154.099 46.6633 154.353 47.4535C154.606 48.2438 155.265 48.8393 156.079 49.0158C156.894 49.1924 157.742 48.923 158.303 48.3093C167.169 39.2568 180.665 36.4518 192.433 41.2152C204.201 45.9787 211.894 57.3609 211.89 70.0007V70.465C211.831 71.7663 212.843 72.8691 214.151 72.928C215.459 72.987 216.567 71.9799 216.627 70.6786C216.631 70.609 216.631 70.5392 216.627 70.4697V70.4232C216.627 70.3118 216.631 70.2143 216.631 70.0889Z" fill="#73C3B6"/>
<path d="M179.862 25C167.813 24.9904 156.268 29.8762 147.826 38.5565C146.844 39.4432 146.759 40.9663 147.637 41.9585C148.515 42.9506 150.024 43.0362 151.006 42.1495C151.073 42.0894 151.136 42.0256 151.195 41.9585C162.637 30.2055 179.98 26.6049 195.086 32.8468C210.191 39.0887 220.059 53.9337 220.057 70.4136C220.018 71.3005 220.465 72.1372 221.22 72.5923C221.975 73.0474 222.916 73.0474 223.671 72.5923C224.426 72.1372 224.872 71.3005 224.834 70.4136C224.834 45.3342 204.7 25.0026 179.862 25Z" fill="#72C9E1"/>
<path d="M404.961 140V105.875H414.594C417.562 105.875 420.188 106.531 422.469 107.844C424.75 109.156 426.508 111.023 427.742 113.445C428.992 115.867 429.625 118.648 429.641 121.789V123.969C429.641 127.188 429.016 130.008 427.766 132.43C426.531 134.852 424.758 136.711 422.445 138.008C420.148 139.305 417.469 139.969 414.406 140H404.961ZM409.461 109.578V136.32H414.195C417.664 136.32 420.359 135.242 422.281 133.086C424.219 130.93 425.188 127.859 425.188 123.875V121.883C425.188 118.008 424.273 115 422.445 112.859C420.633 110.703 418.055 109.609 414.711 109.578H409.461ZM451.438 140C451.188 139.5 450.984 138.609 450.828 137.328C448.812 139.422 446.406 140.469 443.609 140.469C441.109 140.469 439.055 139.766 437.445 138.359C435.852 136.938 435.055 135.141 435.055 132.969C435.055 130.328 436.055 128.281 438.055 126.828C440.07 125.359 442.898 124.625 446.539 124.625H450.758V122.633C450.758 121.117 450.305 119.914 449.398 119.023C448.492 118.117 447.156 117.664 445.391 117.664C443.844 117.664 442.547 118.055 441.5 118.836C440.453 119.617 439.93 120.562 439.93 121.672H435.57C435.57 120.406 436.016 119.188 436.906 118.016C437.812 116.828 439.031 115.891 440.562 115.203C442.109 114.516 443.805 114.172 445.648 114.172C448.57 114.172 450.859 114.906 452.516 116.375C454.172 117.828 455.031 119.836 455.094 122.398V134.07C455.094 136.398 455.391 138.25 455.984 139.625V140H451.438ZM444.242 136.695C445.602 136.695 446.891 136.344 448.109 135.641C449.328 134.938 450.211 134.023 450.758 132.898V127.695H447.359C442.047 127.695 439.391 129.25 439.391 132.359C439.391 133.719 439.844 134.781 440.75 135.547C441.656 136.312 442.82 136.695 444.242 136.695ZM476.656 133.273C476.656 132.102 476.211 131.195 475.32 130.555C474.445 129.898 472.906 129.336 470.703 128.867C468.516 128.398 466.773 127.836 465.477 127.18C464.195 126.523 463.242 125.742 462.617 124.836C462.008 123.93 461.703 122.852 461.703 121.602C461.703 119.523 462.578 117.766 464.328 116.328C466.094 114.891 468.344 114.172 471.078 114.172C473.953 114.172 476.281 114.914 478.062 116.398C479.859 117.883 480.758 119.781 480.758 122.094H476.398C476.398 120.906 475.891 119.883 474.875 119.023C473.875 118.164 472.609 117.734 471.078 117.734C469.5 117.734 468.266 118.078 467.375 118.766C466.484 119.453 466.039 120.352 466.039 121.461C466.039 122.508 466.453 123.297 467.281 123.828C468.109 124.359 469.602 124.867 471.758 125.352C473.93 125.836 475.688 126.414 477.031 127.086C478.375 127.758 479.367 128.57 480.008 129.523C480.664 130.461 480.992 131.609 480.992 132.969C480.992 135.234 480.086 137.055 478.273 138.43C476.461 139.789 474.109 140.469 471.219 140.469C469.188 140.469 467.391 140.109 465.828 139.391C464.266 138.672 463.039 137.672 462.148 136.391C461.273 135.094 460.836 133.695 460.836 132.195H465.172C465.25 133.648 465.828 134.805 466.906 135.664C468 136.508 469.438 136.93 471.219 136.93C472.859 136.93 474.172 136.602 475.156 135.945C476.156 135.273 476.656 134.383 476.656 133.273ZM490.977 117.711C492.898 115.352 495.398 114.172 498.477 114.172C503.836 114.172 506.539 117.195 506.586 123.242V140H502.25V123.219C502.234 121.391 501.812 120.039 500.984 119.164C500.172 118.289 498.898 117.852 497.164 117.852C495.758 117.852 494.523 118.227 493.461 118.977C492.398 119.727 491.57 120.711 490.977 121.93V140H486.641V104H490.977V117.711ZM534.547 127.602C534.547 131.477 533.656 134.594 531.875 136.953C530.094 139.297 527.703 140.469 524.703 140.469C521.5 140.469 519.023 139.336 517.273 137.07L517.062 140H513.078V104H517.414V117.43C519.164 115.258 521.578 114.172 524.656 114.172C527.734 114.172 530.148 115.336 531.898 117.664C533.664 119.992 534.547 123.18 534.547 127.227V127.602ZM530.211 127.109C530.211 124.156 529.641 121.875 528.5 120.266C527.359 118.656 525.719 117.852 523.578 117.852C520.719 117.852 518.664 119.18 517.414 121.836V132.805C518.742 135.461 520.812 136.789 523.625 136.789C525.703 136.789 527.32 135.984 528.477 134.375C529.633 132.766 530.211 130.344 530.211 127.109ZM538.883 127.086C538.883 124.602 539.367 122.367 540.336 120.383C541.32 118.398 542.68 116.867 544.414 115.789C546.164 114.711 548.156 114.172 550.391 114.172C553.844 114.172 556.633 115.367 558.758 117.758C560.898 120.148 561.969 123.328 561.969 127.297V127.602C561.969 130.07 561.492 132.289 560.539 134.258C559.602 136.211 558.25 137.734 556.484 138.828C554.734 139.922 552.719 140.469 550.438 140.469C547 140.469 544.211 139.273 542.07 136.883C539.945 134.492 538.883 131.328 538.883 127.391V127.086ZM543.242 127.602C543.242 130.414 543.891 132.672 545.188 134.375C546.5 136.078 548.25 136.93 550.438 136.93C552.641 136.93 554.391 136.07 555.688 134.352C556.984 132.617 557.633 130.195 557.633 127.086C557.633 124.305 556.969 122.055 555.641 120.336C554.328 118.602 552.578 117.734 550.391 117.734C548.25 117.734 546.523 118.586 545.211 120.289C543.898 121.992 543.242 124.43 543.242 127.602ZM583.062 140C582.812 139.5 582.609 138.609 582.453 137.328C580.438 139.422 578.031 140.469 575.234 140.469C572.734 140.469 570.68 139.766 569.07 138.359C567.477 136.938 566.68 135.141 566.68 132.969C566.68 130.328 567.68 128.281 569.68 126.828C571.695 125.359 574.523 124.625 578.164 124.625H582.383V122.633C582.383 121.117 581.93 119.914 581.023 119.023C580.117 118.117 578.781 117.664 577.016 117.664C575.469 117.664 574.172 118.055 573.125 118.836C572.078 119.617 571.555 120.562 571.555 121.672H567.195C567.195 120.406 567.641 119.188 568.531 118.016C569.438 116.828 570.656 115.891 572.188 115.203C573.734 114.516 575.43 114.172 577.273 114.172C580.195 114.172 582.484 114.906 584.141 116.375C585.797 117.828 586.656 119.836 586.719 122.398V134.07C586.719 136.398 587.016 138.25 587.609 139.625V140H583.062ZM575.867 136.695C577.227 136.695 578.516 136.344 579.734 135.641C580.953 134.938 581.836 134.023 582.383 132.898V127.695H578.984C573.672 127.695 571.016 129.25 571.016 132.359C571.016 133.719 571.469 134.781 572.375 135.547C573.281 136.312 574.445 136.695 575.867 136.695ZM605.773 118.531C605.117 118.422 604.406 118.367 603.641 118.367C600.797 118.367 598.867 119.578 597.852 122V140H593.516V114.641H597.734L597.805 117.57C599.227 115.305 601.242 114.172 603.852 114.172C604.695 114.172 605.336 114.281 605.773 114.5V118.531ZM608.258 127.109C608.258 123.219 609.18 120.094 611.023 117.734C612.867 115.359 615.281 114.172 618.266 114.172C621.234 114.172 623.586 115.188 625.32 117.219V104H629.656V140H625.672L625.461 137.281C623.727 139.406 621.312 140.469 618.219 140.469C615.281 140.469 612.883 139.266 611.023 136.859C609.18 134.453 608.258 131.312 608.258 127.438V127.109ZM612.594 127.602C612.594 130.477 613.188 132.727 614.375 134.352C615.562 135.977 617.203 136.789 619.297 136.789C622.047 136.789 624.055 135.555 625.32 133.086V121.438C624.023 119.047 622.031 117.852 619.344 117.852C617.219 117.852 615.562 118.672 614.375 120.312C613.188 121.953 612.594 124.383 612.594 127.602Z" fill="black"/>
</svg>
